# xmcd
#
# Track frame offsets:
#	150
#	16595
#	38152
#	52611
#	70441
#	90810
#	108338
#	128908
#	147129
#	171459
#	190699
#	209826
#	226266
#	243321
#	261143
#	281108
#	292519
#	313144
#	327277
#
# Disc length: 4573 seconds
#
# Revision: 1
# Processed by: cddbd v1.5.2PL0 Copyright (c) Steve Scherf et al.
# Submitted via: EasyCDDAExtractor 12.0.1.1
#
DISCID=0711db13
DTITLE=Various Artist - Urban Weekend - The Ride
DYEAR=2006
DGENRE=R&B
TTITLE0=Busta Rhymes - Touch It
TTITLE1=The Game - Dreams
TTITLE2=50 Cent - Window Shopper
TTITLE3=Mobb Deep - Put Em In Their Place
TTITLE4=Nelly Ft. Paul Wall, Ali &Gipp - Grillz
TTITLE5=G Unit - Stunt 101
TTITLE6=Dem Franchize Boyz - Oh, I Think Dey Like Me
TTITLE7=Ying Yang Twins Ft. PitBull - Shake
TTITLE8=Lil Jon Ft. Lil Scrappy - What U Gon Do?
TTITLE9=Rick Ross - Hustlin'
TTITLE10=Young Jeezy - Go Crazy
TTITLE11=DMX - X Gon' Give It To Ya
TTITLE12=Dead Prez - Hip Hop
TTITLE13=Pitbull Ft. Piccalo - Dammit Man
TTITLE14=Sway Ft. Bruza, Pyrelli, Bigz, Triple Threat and SkinnyMan - Up The Spe
TTITLE14=ed
TTITLE15=Lethal B Ft. Fire Camp - Forward 2
TTITLE16=Akala - Shakespeare
TTITLE17=Roll Deep - Babylon Number
TTITLE18=Jammer - Murkleman
EXTD=
EXTT0=
EXTT1=
EXTT2=
EXTT3=
EXTT4=
EXTT5=
EXTT6=
EXTT7=
EXTT8=
EXTT9=
EXTT10=
EXTT11=
EXTT12=
EXTT13=
EXTT14=
EXTT15=
EXTT16=
EXTT17=
EXTT18=
PLAYORDER=
